HIERARCHY
ROOT Hips
{
	OFFSET 0.0136489431 85.5290222 -2.13670418
	CHANNELS 6 Xposition Yposition Zposition Zrotation Yrotation Xrotation 
	JOINT Spine
	{
		OFFSET 2.30099286e-05 8.81424618 -2.08003235
		CHANNELS 3 Zrotation Yrotation Xrotation 
		JOINT Spine1
		{
			OFFSET 8.7261958e-07 8.84414387 -2.72457055e-06
			CHANNELS 3 Zrotation Yrotation Xrotation 
			JOINT Spine2
			{
				OFFSET -2.55740429e-06 11.682272 4.31642138e-06
				CHANNELS 3 Zrotation Yrotation Xrotation 
				JOINT Spine3
				{
					OFFSET 6.59586306e-07 11.7466984 -3.93247592e-06
					CHANNELS 3 Zrotation Yrotation Xrotation 
					JOINT Neck
					{
						OFFSET 8.48960008e-06 17.6582756 -8.42700974e-05
						CHANNELS 3 Zrotation Yrotation Xrotation 
						JOINT Neck1
						{
							OFFSET 3.79443094e-07 5.10151863 3.26421036e-06
							CHANNELS 3 Zrotation Yrotation Xrotation 
							JOINT Head
							{
								OFFSET -9.47953868e-06 5.10151625 8.86555881e-06
								CHANNELS 3 Zrotation Yrotation Xrotation 
								JOINT HeadEnd
								{
									OFFSET -4.13024277e-16 11.6550846 5.50596564e-14
									CHANNELS 3 Zrotation Yrotation Xrotation 
									End Site
									{
										OFFSET 0 0 0
									}
								}
							}
						}
					}
				}
				JOINT RightShoulder
				{
					OFFSET -2.62538743 11.1752224 -4.81263169e-06
					CHANNELS 3 Zrotation Yrotation Xrotation 
					JOINT RightArm
					{
						OFFSET -1.50603675e-06 10.4347115 1.24267818e-05
						CHANNELS 3 Zrotation Yrotation Xrotation 
						JOINT RightForeArm
						{
							OFFSET 0.069977134 25.8717893 -0.536955001
							CHANNELS 3 Zrotation Yrotation Xrotation 
							JOINT RightHand
							{
								OFFSET 0.298976964 24.8929021 -0.0338061789
								CHANNELS 3 Zrotation Yrotation Xrotation 
								JOINT RightHandThumb1
								{
									OFFSET -2.86730862 3.95956302 2.94429946
									CHANNELS 3 Zrotation Yrotation Xrotation 
									JOINT RightHandThumb2
									{
										OFFSET 5.44471726e-06 3.35039091 -6.88177021e-07
										CHANNELS 3 Zrotation Yrotation Xrotation 
										JOINT RightHandThumb3
										{
											OFFSET -5.18119812e-06 3.75651813 3.88906735e-06
											CHANNELS 3 Zrotation Yrotation Xrotation 
											JOINT RightHandThumb4
											{
												OFFSET -4.83070982e-07 3.1473465 -1.11636681e-06
												CHANNELS 3 Zrotation Yrotation Xrotation 
												End Site
												{
													OFFSET 0 0 0
												}
											}
										}
									}
								}
							}
							JOINT RightHandIndex1
							{
								OFFSET -0.0867566392 10.030899 2.34528232
								CHANNELS 3 Zrotation Yrotation Xrotation 
								JOINT RightHandIndex2
								{
									OFFSET -3.76662116e-06 4.06108809 3.41322158e-06
									CHANNELS 3 Zrotation Yrotation Xrotation 
									JOINT RightHandIndex3
									{
										OFFSET 2.12695065e-06 3.2488718 -2.91990217e-06
										CHANNELS 3 Zrotation Yrotation Xrotation 
										JOINT RightHandIndex4
										{
											OFFSET 1.19115619e-07 2.6397078 2.31537559e-06
											CHANNELS 3 Zrotation Yrotation Xrotation 
											End Site
											{
												OFFSET 0 0 0
											}
										}
									}
								}
							}
						}
						JOINT RightHandMiddle1
						{
							OFFSET 0.104109198 9.50295544 0.00677696662
							CHANNELS 3 Zrotation Yrotation Xrotation 
							JOINT RightHandMiddle2
							{
								OFFSET -4.00518747e-07 4.56873274 5.93760964e-06
								CHANNELS 3 Zrotation Yrotation Xrotation 
								JOINT RightHandMiddle3
								{
									OFFSET 7.54751455e-06 3.6549809 -3.29262286e-06
									CHANNELS 3 Zrotation Yrotation Xrotation 
									JOINT RightHandMiddle4
									{
										OFFSET -2.47242271e-06 2.74122977 5.72284435e-06
										CHANNELS 3 Zrotation Yrotation Xrotation 
										End Site
										{
											OFFSET 0 0 0
										}
									}
								}
							}
						}
					}
					JOINT RightHandRing1
					{
						OFFSET 0.0867536962 8.92171097 -2.26744866
						CHANNELS 3 Zrotation Yrotation Xrotation 
						JOINT RightHandRing2
						{
							OFFSET -8.49416485e-06 4.06109715 8.33849263e-08
							CHANNELS 3 Zrotation Yrotation Xrotation 
							JOINT RightHandRing3
							{
								OFFSET -2.69741424e-07 3.65497613 8.05873964e-06
								CHANNELS 3 Zrotation Yrotation Xrotation 
								JOINT RightHandRing4
								{
									OFFSET -1.75682811e-07 2.74124503 -6.02012545e-07
									CHANNELS 3 Zrotation Yrotation Xrotation 
									End Site
									{
										OFFSET 0 0 0
									}
								}
							}
						}
					}
				}
				JOINT RightHandPinky1
				{
					OFFSET -0.173490137 7.97699213 -4.46720457
					CHANNELS 3 Zrotation Yrotation Xrotation 
					JOINT RightHandPinky2
					{
						OFFSET -5.09637176e-06 3.35040545 -1.14142521e-05
						CHANNELS 3 Zrotation Yrotation Xrotation 
						JOINT RightHandPinky3
						{
							OFFSET -2.41064345e-06 2.84276104 3.31119791e-07
							CHANNELS 3 Zrotation Yrotation Xrotation 
							JOINT RightHandPinky4
							{
								OFFSET -4.84227395e-06 2.63970661 4.19883692e-06
								CHANNELS 3 Zrotation Yrotation Xrotation 
								End Site
								{
									OFFSET 0 0 0
								}
							}
						}
					}
				}
			}
			JOINT RightForeArmEnd
			{
				OFFSET -2.56183113e-14 -1.74232385e-16 -6.35784429e-17
				CHANNELS 3 Zrotation Yrotation Xrotation 
				End Site
				{
					OFFSET 0 0 0
				}
			}
		}
	}
	JOINT RightArmEnd
	{
		OFFSET -6.99860395e-14 1.22731819e-14 -1.81852944e-16
		CHANNELS 3 Zrotation Yrotation Xrotation 
		End Site
		{
			OFFSET 0 0 0
		}
	}
}
MOTION
Frames: 10
Frame Time: 0.033333
0.00206339773 89.6875169 0.432699401 0.0342942874 -0.0110238093 1.49217412 0.0357778847 -0.0116867938 1.41323531 0.0358042005 -0.0118365027 1.234315 0.0358362307 -0.0119842064 0.996965538 -0.00568488116 0.00165112925 -0.202252537 0 0 0 0 0 0 0 0 0 0 0 0 -0.0117766982 0.025636646 0.971405475 -0.0118539055 0.0220786453 0.757630977 -0.0103616531 0.0121952525 0.234148195 -0.00423076801 -0.000705569489 -0.277062574 0 0 0 0 0 0 0 0 0 0 0 0 0 0 0 0 0 0 0 0 0 0 0 0 0 0 0 0 0 0 0 0 0 0 0 0 0 0 0 0 0 0 0 0 0 0 0 0 0 0 0 0 0 0 0 0 0 0 0 0 0 0 0 0 0 0 
-214.431888 89.3021937 29.0678903 0.708004799 -25.621438 1.55015665 -0.625437918 -3.87713967 -0.865507221 -0.557947245 -3.61190157 -1.34094786 -0.474156086 -3.2432345 -1.97449368 0.626239214 -7.41076217 0.348427823 0 0 0 0 0 0 0 0 0 0 0 0 -1.39273649 4.59176037 -3.06045936 -1.35078539 4.58726918 -3.62545522 -1.31677442 4.58248097 -4.91599879 -1.24389684 4.52888938 -6.14449772 0 0 0 0 0 0 0 0 0 0 0 0 0 0 0 0 0 0 0 0 0 0 0 0 0 0 0 0 0 0 0 0 0 0 0 0 0 0 0 0 0 0 0 0 0 0 0 0 0 0 0 0 0 0 0 0 0 0 0 0 0 0 0 0 0 0 
-214.7505 89.3935706 29.0152018 2.2805087 -44.6052106 4.48004178 -0.86041091 -2.12501599 0.302289284 -0.745800239 -1.67172592 -0.93564774 -0.553356307 -1.05080882 -2.54460088 1.41865847 -14.4334345 1.89194365 0 0 0 0 0 0 0 0 0 0 0 0 -3.03635984 14.0968858 -6.48424317 -2.59925652 13.8880575 -7.81120287 -2.3764601 12.9450971 -10.8219501 -2.22783695 11.6428935 -13.4930442 0 0 0 0 0 0 0 0 0 0 0 0 0 0 0 0 0 0 0 0 0 0 0 0 0 0 0 0 0 0 0 0 0 0 0 0 0 0 0 0 0 0 0 0 0 0 0 0 0 0 0 0 0 0 0 0 0 0 0 0 0 0 0 0 0 0 
-215.018907 89.406628 28.841149 2.96728089 -55.8889366 6.25004557 -1.2048584 0.121133527 1.29881758 -1.06159191 0.695264549 -0.63504999 -0.791321662 1.46365407 -3.13905019 2.48358646 -15.0203443 0.714150272 0 0 0 0 0 0 0 0 0 0 0 0 -4.19042918 17.481906 -6.9721346 -3.5244999 17.077507 -8.89203866 -3.36680147 15.0764103 -13.432385 -3.51567002 12.4294891 -17.28592 0 0 0 0 0 0 0 0 0 0 0 0 0 0 0 0 0 0 0 0 0 0 0 0 0 0 0 0 0 0 0 0 0 0 0 0 0 0 0 0 0 0 0 0 0 0 0 0 0 0 0 0 0 0 0 0 0 0 0 0 0 0 0 0 0 0 
-215.298767 89.2768715 28.5490689 3.48602022 -59.753475 7.13748163 -1.37210577 1.08474956 2.24885875 -1.24515929 1.76367934 -0.298528087 -0.977781583 2.64456031 -3.60121457 3.63791534 -14.7771622 -1.01488873 0 0 0 0 0 0 0 0 0 0 0 0 -5.0643024 18.7476443 -6.55010115 -4.21145892 18.1640177 -8.94537218 -4.17714586 15.1404779 -14.8133866 -4.72380882 11.2405611 -19.6211322 0 0 0 0 0 0 0 0 0 0 0 0 0 0 0 0 0 0 0 0 0 0 0 0 0 0 0 0 0 0 0 0 0 0 0 0 0 0 0 0 0 0 0 0 0 0 0 0 0 0 0 0 0 0 0 0 0 0 0 0 0 0 0 0 0 0 
-215.5338 89.0090335 28.0966228 4.14482555 -62.2438504 7.84747083 -1.47776794 1.74313418 3.15811517 -1.36694887 2.52230797 0.0587268582 -1.11665381 3.50047645 -3.96796472 4.81316961 -14.5257287 -2.68422751 0 0 0 0 0 0 0 0 0 0 0 0 -5.88450667 19.6955663 -5.99300073 -4.82970754 18.941695 -8.79778747 -4.88779035 14.9304648 -15.8787376 -5.77552629 9.83395356 -21.5274382 0 0 0 0 0 0 0 0 0 0 0 0 0 0 0 0 0 0 0 0 0 0 0 0 0 0 0 0 0 0 0 0 0 0 0 0 0 0 0 0 0 0 0 0 0 0 0 0 0 0 0 0 0 0 0 0 0 0 0 0 0 0 0 0 0 0 
-215.582961 88.7160272 27.7362234 4.53909597 -63.3932737 8.09382677 -1.49601791 1.97013092 3.55371241 -1.39073565 2.7974792 0.213443415 -1.15070796 3.82032352 -4.13084474 5.40571589 -14.3845537 -3.4205084 0 0 0 0 0 0 0 0 0 0 0 0 -6.29190746 20.0379818 -5.73751676 -5.14363248 19.2141577 -8.69980373 -5.23541073 14.7701495 -16.2958547 -6.26196411 9.15521623 -22.2913837 0 0 0 0 0 0 0 0 0 0 0 0 0 0 0 0 0 0 0 0 0 0 0 0 0 0 0 0 0 0 0 0 0 0 0 0 0 0 0 0 0 0 0 0 0 0 0 0 0 0 0 0 0 0 0 0 0 0 0 0 0 0 0 0 0 0 
-215.375256 88.468509 27.4858325 4.77715578 -64.4028652 8.32516733 -1.55021494 2.11294952 3.84676472 -1.44836697 2.97934332 0.319276934 -1.21827889 4.04135778 -4.27267876 5.88282792 -14.2672045 -3.98695348 0 0 0 0 0 0 0 0 0 0 0 0 -6.67658082 20.2802578 -5.55779761 -5.45304712 19.4076907 -8.62120062 -5.56402272 14.6312569 -16.6022602 -6.68761537 8.62338368 -22.8536947 0 0 0 0 0 0 0 0 0 0 0 0 0 0 0 0 0 0 0 0 0 0 0 0 0 0 0 0 0 0 0 0 0 0 0 0 0 0 0 0 0 0 0 0 0 0 0 0 0 0 0 0 0 0 0 0 0 0 0 0 0 0 0 0 0 0 
-214.848799 88.3287923 27.3941698 4.88880053 -65.257565 8.399006 -1.62809819 2.18929777 3.98135249 -1.53095319 3.08353667 0.320063716 -1.31353192 4.17667973 -4.44933087 6.17317392 -14.190632 -4.42715465 0 0 0 0 0 0 0 0 0 0 0 0 -6.95643462 20.4488118 -5.47251749 -5.69493962 19.5361226 -8.61258216 -5.83110558 14.511325 -16.8697553 -7.03052348 8.21518958 -23.2960792 0 0 0 0 0 0 0 0 0 0 0 0 0 0 0 0 0 0 0 0 0 0 0 0 0 0 0 0 0 0 0 0 0 0 0 0 0 0 0 0 0 0 0 0 0 0 0 0 0 0 0 0 0 0 0 0 0 0 0 0 0 0 0 0 0 0 
-214.509776 88.2609071 27.1476122 5.11749482 -65.896943 8.26179497 -1.63317823 2.24219237 4.04876928 -1.54070556 3.15812626 0.298554559 -1.33363448 4.27233111 -4.58886889 6.33431372 -14.152331 -4.71725968 0 0 0 0 0 0 0 0 0 0 0 0 -7.07769895 20.5741972 -5.44594204 -5.81204728 19.6238159 -8.66095524 -5.98306293 14.4203398 -17.1115999 -7.2451096 7.91715132 -23.651306 0 0 0 0 0 0 0 0 0 0 0 0 0 0 0 0 0 0 0 0 0 0 0 0 0 0 0 0 0 0 0 0 0 0 0 0 0 0 0 0 0 0 0 0 0 0 0 0 0 0 0 0 0 0 0 0 0 0 0 0 0 0 0 0 0 0 
